<mxfile host="app.diagrams.net" modified="2023-09-20T18:46:08.482Z" agent="Mozilla/5.0 (Windows NT 10.0; Win64; x64) AppleWebKit/537.36 (KHTML, like Gecko) Chrome/116.0.0.0 Safari/537.36" etag="K2tEdy0vEZTWjw2NiXAM" version="21.7.5" type="device">
  <diagram id="C5RBs43oDa-KdzZeNtuy" name="Page-1">
    <mxGraphModel dx="750" dy="349" grid="1" gridSize="10" guides="1" tooltips="1" connect="1" arrows="1" fold="1" page="1" pageScale="1" pageWidth="827" pageHeight="1169" math="0" shadow="0">
      <root>
        <mxCell id="WIyWlLk6GJQsqaUBKTNV-0" />
        <mxCell id="WIyWlLk6GJQsqaUBKTNV-1" parent="WIyWlLk6GJQsqaUBKTNV-0" />
        <mxCell id="WIyWlLk6GJQsqaUBKTNV-2" value="" style="rounded=1;html=1;jettySize=auto;orthogonalLoop=1;fontSize=11;endArrow=block;endFill=0;endSize=8;strokeWidth=1;shadow=0;labelBackgroundColor=none;edgeStyle=orthogonalEdgeStyle;fontColor=default;" parent="WIyWlLk6GJQsqaUBKTNV-1" source="WIyWlLk6GJQsqaUBKTNV-3" target="WIyWlLk6GJQsqaUBKTNV-6" edge="1">
          <mxGeometry relative="1" as="geometry" />
        </mxCell>
        <mxCell id="WIyWlLk6GJQsqaUBKTNV-3" value="Colleges/Universities" style="rounded=1;whiteSpace=wrap;html=1;fontSize=12;glass=0;strokeWidth=1;shadow=0;labelBackgroundColor=none;" parent="WIyWlLk6GJQsqaUBKTNV-1" vertex="1">
          <mxGeometry x="54" y="90" width="120" height="40" as="geometry" />
        </mxCell>
        <mxCell id="Rth1ztqhkhbN8Imw05hQ-18" style="edgeStyle=orthogonalEdgeStyle;rounded=0;orthogonalLoop=1;jettySize=auto;html=1;" edge="1" parent="WIyWlLk6GJQsqaUBKTNV-1" source="WIyWlLk6GJQsqaUBKTNV-6" target="Rth1ztqhkhbN8Imw05hQ-9">
          <mxGeometry relative="1" as="geometry" />
        </mxCell>
        <mxCell id="WIyWlLk6GJQsqaUBKTNV-6" value="Register/Sign Up" style="rhombus;whiteSpace=wrap;html=1;shadow=0;fontFamily=Helvetica;fontSize=12;align=center;strokeWidth=1;spacing=6;spacingTop=-4;rounded=1;labelBackgroundColor=none;" parent="WIyWlLk6GJQsqaUBKTNV-1" vertex="1">
          <mxGeometry x="214" y="60" width="110" height="100" as="geometry" />
        </mxCell>
        <mxCell id="8CQNdD5OhlQALT7Namay-0" value="" style="rounded=0;whiteSpace=wrap;html=1;labelBackgroundColor=none;" parent="WIyWlLk6GJQsqaUBKTNV-1" vertex="1">
          <mxGeometry x="414" y="37.5" width="140" height="480" as="geometry" />
        </mxCell>
        <mxCell id="Rth1ztqhkhbN8Imw05hQ-2" value="" style="edgeStyle=orthogonalEdgeStyle;rounded=0;orthogonalLoop=1;jettySize=auto;html=1;exitX=0.5;exitY=0.5;exitDx=0;exitDy=0;exitPerimeter=0;labelBackgroundColor=none;fontColor=default;" edge="1" parent="WIyWlLk6GJQsqaUBKTNV-1" source="8CQNdD5OhlQALT7Namay-1">
          <mxGeometry x="0.2161" y="1" relative="1" as="geometry">
            <mxPoint x="204" y="238" as="targetPoint" />
            <Array as="points">
              <mxPoint x="154" y="238" />
              <mxPoint x="154" y="239" />
            </Array>
            <mxPoint as="offset" />
          </mxGeometry>
        </mxCell>
        <mxCell id="8CQNdD5OhlQALT7Namay-1" value="Individual" style="shape=umlActor;verticalLabelPosition=bottom;verticalAlign=top;html=1;outlineConnect=0;labelBackgroundColor=none;" parent="WIyWlLk6GJQsqaUBKTNV-1" vertex="1">
          <mxGeometry x="94" y="210" width="30" height="60" as="geometry" />
        </mxCell>
        <mxCell id="Rth1ztqhkhbN8Imw05hQ-20" style="edgeStyle=orthogonalEdgeStyle;rounded=0;orthogonalLoop=1;jettySize=auto;html=1;entryX=0.037;entryY=0.643;entryDx=0;entryDy=0;entryPerimeter=0;" edge="1" parent="WIyWlLk6GJQsqaUBKTNV-1" source="Rth1ztqhkhbN8Imw05hQ-1" target="Rth1ztqhkhbN8Imw05hQ-28">
          <mxGeometry relative="1" as="geometry">
            <mxPoint x="384" y="247.5" as="targetPoint" />
          </mxGeometry>
        </mxCell>
        <mxCell id="Rth1ztqhkhbN8Imw05hQ-1" value="Register/Sign UP" style="rhombus;whiteSpace=wrap;html=1;labelBackgroundColor=none;" vertex="1" parent="WIyWlLk6GJQsqaUBKTNV-1">
          <mxGeometry x="207.75" y="190" width="102.5" height="95" as="geometry" />
        </mxCell>
        <mxCell id="Rth1ztqhkhbN8Imw05hQ-6" value="" style="rounded=1;html=1;jettySize=auto;orthogonalLoop=1;fontSize=11;endArrow=block;endFill=0;endSize=8;strokeWidth=1;shadow=0;labelBackgroundColor=none;edgeStyle=orthogonalEdgeStyle;fontColor=default;" edge="1" parent="WIyWlLk6GJQsqaUBKTNV-1" source="Rth1ztqhkhbN8Imw05hQ-7" target="Rth1ztqhkhbN8Imw05hQ-8">
          <mxGeometry relative="1" as="geometry" />
        </mxCell>
        <mxCell id="Rth1ztqhkhbN8Imw05hQ-7" value="Industry" style="rounded=1;whiteSpace=wrap;html=1;fontSize=12;glass=0;strokeWidth=1;shadow=0;labelBackgroundColor=none;" vertex="1" parent="WIyWlLk6GJQsqaUBKTNV-1">
          <mxGeometry x="54" y="410" width="120" height="40" as="geometry" />
        </mxCell>
        <mxCell id="Rth1ztqhkhbN8Imw05hQ-22" style="edgeStyle=orthogonalEdgeStyle;rounded=0;orthogonalLoop=1;jettySize=auto;html=1;entryX=0;entryY=0.818;entryDx=0;entryDy=0;entryPerimeter=0;" edge="1" parent="WIyWlLk6GJQsqaUBKTNV-1" source="Rth1ztqhkhbN8Imw05hQ-8" target="8CQNdD5OhlQALT7Namay-0">
          <mxGeometry relative="1" as="geometry">
            <mxPoint x="384" y="430" as="targetPoint" />
          </mxGeometry>
        </mxCell>
        <mxCell id="Rth1ztqhkhbN8Imw05hQ-8" value="Register/Sign Up" style="rhombus;whiteSpace=wrap;html=1;shadow=0;fontFamily=Helvetica;fontSize=12;align=center;strokeWidth=1;spacing=6;spacingTop=-4;rounded=1;labelBackgroundColor=none;" vertex="1" parent="WIyWlLk6GJQsqaUBKTNV-1">
          <mxGeometry x="217.75" y="380" width="110" height="100" as="geometry" />
        </mxCell>
        <mxCell id="Rth1ztqhkhbN8Imw05hQ-9" value="Add Projects&lt;br&gt;Update Projects/Innovations" style="ellipse;whiteSpace=wrap;html=1;labelBackgroundColor=none;" vertex="1" parent="WIyWlLk6GJQsqaUBKTNV-1">
          <mxGeometry x="424" y="70" width="120" height="80" as="geometry" />
        </mxCell>
        <mxCell id="Rth1ztqhkhbN8Imw05hQ-16" value="System" style="whiteSpace=wrap;html=1;labelBackgroundColor=none;" vertex="1" parent="WIyWlLk6GJQsqaUBKTNV-1">
          <mxGeometry x="454" y="30" width="60" height="30" as="geometry" />
        </mxCell>
        <mxCell id="Rth1ztqhkhbN8Imw05hQ-19" value="UGC ID" style="text;html=1;align=center;verticalAlign=middle;resizable=0;points=[];autosize=1;strokeColor=none;fillColor=none;" vertex="1" parent="WIyWlLk6GJQsqaUBKTNV-1">
          <mxGeometry x="327.75" y="80" width="70" height="30" as="geometry" />
        </mxCell>
        <mxCell id="Rth1ztqhkhbN8Imw05hQ-21" value="AADHAR" style="text;html=1;align=center;verticalAlign=middle;resizable=0;points=[];autosize=1;strokeColor=none;fillColor=none;" vertex="1" parent="WIyWlLk6GJQsqaUBKTNV-1">
          <mxGeometry x="319" y="208" width="70" height="30" as="geometry" />
        </mxCell>
        <mxCell id="Rth1ztqhkhbN8Imw05hQ-23" value="TIN NO." style="text;html=1;align=center;verticalAlign=middle;resizable=0;points=[];autosize=1;strokeColor=none;fillColor=none;" vertex="1" parent="WIyWlLk6GJQsqaUBKTNV-1">
          <mxGeometry x="327.75" y="398" width="70" height="30" as="geometry" />
        </mxCell>
        <mxCell id="Rth1ztqhkhbN8Imw05hQ-24" value="Yes" style="text;html=1;align=center;verticalAlign=middle;resizable=0;points=[];autosize=1;strokeColor=none;fillColor=none;" vertex="1" parent="WIyWlLk6GJQsqaUBKTNV-1">
          <mxGeometry x="144" y="208" width="40" height="30" as="geometry" />
        </mxCell>
        <mxCell id="Rth1ztqhkhbN8Imw05hQ-25" value="Yes" style="text;html=1;align=center;verticalAlign=middle;resizable=0;points=[];autosize=1;strokeColor=none;fillColor=none;" vertex="1" parent="WIyWlLk6GJQsqaUBKTNV-1">
          <mxGeometry x="174" y="78" width="40" height="30" as="geometry" />
        </mxCell>
        <mxCell id="Rth1ztqhkhbN8Imw05hQ-26" value="Yes" style="text;html=1;align=center;verticalAlign=middle;resizable=0;points=[];autosize=1;strokeColor=none;fillColor=none;" vertex="1" parent="WIyWlLk6GJQsqaUBKTNV-1">
          <mxGeometry x="174" y="398" width="40" height="30" as="geometry" />
        </mxCell>
        <mxCell id="Rth1ztqhkhbN8Imw05hQ-27" value="Personalized Platforms" style="text;html=1;align=center;verticalAlign=middle;resizable=0;points=[];autosize=1;strokeColor=none;fillColor=none;" vertex="1" parent="WIyWlLk6GJQsqaUBKTNV-1">
          <mxGeometry x="409" y="150" width="150" height="30" as="geometry" />
        </mxCell>
        <mxCell id="Rth1ztqhkhbN8Imw05hQ-28" value="Idea Submission,&lt;br&gt;Collaborations&amp;nbsp;" style="ellipse;whiteSpace=wrap;html=1;" vertex="1" parent="WIyWlLk6GJQsqaUBKTNV-1">
          <mxGeometry x="424" y="190" width="120" height="80" as="geometry" />
        </mxCell>
        <mxCell id="Rth1ztqhkhbN8Imw05hQ-30" value="" style="ellipse;shape=doubleEllipse;whiteSpace=wrap;html=1;" vertex="1" parent="WIyWlLk6GJQsqaUBKTNV-1">
          <mxGeometry x="434" y="280" width="100" height="60" as="geometry" />
        </mxCell>
        <mxCell id="Rth1ztqhkhbN8Imw05hQ-31" value="" style="shape=curlyBracket;whiteSpace=wrap;html=1;rounded=1;labelPosition=left;verticalLabelPosition=middle;align=right;verticalAlign=middle;" vertex="1" parent="WIyWlLk6GJQsqaUBKTNV-1">
          <mxGeometry x="389" y="210" width="20" height="140" as="geometry" />
        </mxCell>
        <mxCell id="Rth1ztqhkhbN8Imw05hQ-32" value="" style="edgeStyle=segmentEdgeStyle;endArrow=classic;html=1;curved=0;rounded=0;endSize=8;startSize=8;exitX=0.75;exitY=0.5;exitDx=0;exitDy=0;exitPerimeter=0;" edge="1" parent="WIyWlLk6GJQsqaUBKTNV-1" source="Rth1ztqhkhbN8Imw05hQ-37">
          <mxGeometry width="50" height="50" relative="1" as="geometry">
            <mxPoint x="254" y="320" as="sourcePoint" />
            <mxPoint x="434" y="319.5" as="targetPoint" />
            <Array as="points">
              <mxPoint x="109" y="322" />
              <mxPoint x="254" y="322" />
              <mxPoint x="254" y="319" />
            </Array>
          </mxGeometry>
        </mxCell>
        <mxCell id="Rth1ztqhkhbN8Imw05hQ-37" value="" style="line;strokeWidth=2;direction=south;html=1;" vertex="1" parent="WIyWlLk6GJQsqaUBKTNV-1">
          <mxGeometry x="104" y="287.5" width="10" height="22.5" as="geometry" />
        </mxCell>
        <mxCell id="Rth1ztqhkhbN8Imw05hQ-39" value="No" style="text;html=1;align=center;verticalAlign=middle;resizable=0;points=[];autosize=1;strokeColor=none;fillColor=none;" vertex="1" parent="WIyWlLk6GJQsqaUBKTNV-1">
          <mxGeometry x="238" y="295" width="40" height="30" as="geometry" />
        </mxCell>
        <mxCell id="Rth1ztqhkhbN8Imw05hQ-40" value="" style="edgeStyle=none;orthogonalLoop=1;jettySize=auto;html=1;rounded=0;" edge="1" parent="WIyWlLk6GJQsqaUBKTNV-1">
          <mxGeometry width="100" relative="1" as="geometry">
            <mxPoint x="554" y="109.55000000000001" as="sourcePoint" />
            <mxPoint x="584" y="110" as="targetPoint" />
            <Array as="points" />
          </mxGeometry>
        </mxCell>
        <mxCell id="Rth1ztqhkhbN8Imw05hQ-41" value="Projects Submission&lt;br&gt;Cross Functional Research&amp;nbsp;" style="text;html=1;align=center;verticalAlign=middle;resizable=0;points=[];autosize=1;strokeColor=none;fillColor=none;" vertex="1" parent="WIyWlLk6GJQsqaUBKTNV-1">
          <mxGeometry x="574" y="90" width="170" height="40" as="geometry" />
        </mxCell>
        <mxCell id="Rth1ztqhkhbN8Imw05hQ-42" value="" style="edgeStyle=none;orthogonalLoop=1;jettySize=auto;html=1;rounded=0;" edge="1" parent="WIyWlLk6GJQsqaUBKTNV-1">
          <mxGeometry width="100" relative="1" as="geometry">
            <mxPoint x="554" y="229.51999999999998" as="sourcePoint" />
            <mxPoint x="584" y="229.97000000000003" as="targetPoint" />
            <Array as="points" />
          </mxGeometry>
        </mxCell>
        <mxCell id="Rth1ztqhkhbN8Imw05hQ-43" value="" style="ellipse;whiteSpace=wrap;html=1;" vertex="1" parent="WIyWlLk6GJQsqaUBKTNV-1">
          <mxGeometry x="424" y="380" width="120" height="80" as="geometry" />
        </mxCell>
        <mxCell id="Rth1ztqhkhbN8Imw05hQ-44" value="" style="endArrow=none;html=1;rounded=0;exitX=0.945;exitY=0.285;exitDx=0;exitDy=0;exitPerimeter=0;entryX=0.117;entryY=1.088;entryDx=0;entryDy=0;entryPerimeter=0;" edge="1" parent="WIyWlLk6GJQsqaUBKTNV-1" target="Rth1ztqhkhbN8Imw05hQ-46">
          <mxGeometry width="50" height="50" relative="1" as="geometry">
            <mxPoint x="554.0000000000001" y="412.80000000000007" as="sourcePoint" />
            <mxPoint x="640.6" y="380" as="targetPoint" />
            <Array as="points">
              <mxPoint x="604" y="392.8" />
            </Array>
          </mxGeometry>
        </mxCell>
        <mxCell id="Rth1ztqhkhbN8Imw05hQ-45" value="" style="endArrow=none;html=1;rounded=0;entryX=0.246;entryY=0.043;entryDx=0;entryDy=0;entryPerimeter=0;" edge="1" parent="WIyWlLk6GJQsqaUBKTNV-1" target="Rth1ztqhkhbN8Imw05hQ-47">
          <mxGeometry width="50" height="50" relative="1" as="geometry">
            <mxPoint x="554" y="430" as="sourcePoint" />
            <mxPoint x="634" y="472" as="targetPoint" />
          </mxGeometry>
        </mxCell>
        <mxCell id="Rth1ztqhkhbN8Imw05hQ-46" value="Add Problem Statement" style="text;html=1;align=center;verticalAlign=middle;resizable=0;points=[];autosize=1;strokeColor=none;fillColor=none;" vertex="1" parent="WIyWlLk6GJQsqaUBKTNV-1">
          <mxGeometry x="610" y="350" width="150" height="30" as="geometry" />
        </mxCell>
        <mxCell id="Rth1ztqhkhbN8Imw05hQ-47" value="Collab with Institute/Individuals" style="text;html=1;align=center;verticalAlign=middle;resizable=0;points=[];autosize=1;strokeColor=none;fillColor=none;" vertex="1" parent="WIyWlLk6GJQsqaUBKTNV-1">
          <mxGeometry x="590" y="470" width="190" height="30" as="geometry" />
        </mxCell>
        <mxCell id="Rth1ztqhkhbN8Imw05hQ-48" value="Text" style="text;html=1;align=center;verticalAlign=middle;resizable=0;points=[];autosize=1;strokeColor=none;fillColor=none;" vertex="1" parent="WIyWlLk6GJQsqaUBKTNV-1">
          <mxGeometry x="599" y="218" width="50" height="30" as="geometry" />
        </mxCell>
        <mxCell id="Rth1ztqhkhbN8Imw05hQ-49" value="Component Model System" style="text;html=1;align=center;verticalAlign=middle;resizable=0;points=[];autosize=1;strokeColor=none;fillColor=none;" vertex="1" parent="WIyWlLk6GJQsqaUBKTNV-1">
          <mxGeometry x="404" y="517.5" width="160" height="30" as="geometry" />
        </mxCell>
      </root>
    </mxGraphModel>
  </diagram>
</mxfile>
